<?xml version="1.0" standalone="no"?>
<!DOCTYPE svg PUBLIC "-//W3C//DTD SVG 20010904//EN"
 "http://www.w3.org/TR/2001/REC-SVG-20010904/DTD/svg10.dtd">
<svg version="1.0" xmlns="http://www.w3.org/2000/svg"
 width="300.000000pt" height="300.000000pt" viewBox="0 0 300.000000 300.000000"
 preserveAspectRatio="xMidYMid meet">

<g transform="translate(0.000000,300.000000) scale(0.100000,-0.100000)"
fill="#000000" stroke="none">
<path d="M0 1500 l0 -1500 1500 0 1500 0 0 1500 0 1500 -1500 0 -1500 0 0
-1500z m796 1183 l49 -78 3 78 c2 59 6 77 17 77 12 0 15 -20 15 -105 0 -132
-11 -136 -83 -24 l-52 80 -3 -80 c-2 -63 -6 -81 -17 -81 -12 0 -15 20 -15 105
0 96 2 105 19 105 13 0 35 -25 67 -77z m255 -28 c21 -55 39 -101 39 -102 0 -2
-6 -3 -14 -3 -8 0 -20 16 -27 35 -12 32 -17 35 -52 35 -34 0 -40 -4 -53 -35
-8 -19 -20 -35 -28 -35 -10 0 -2 30 27 105 27 69 46 105 55 103 7 -2 31 -48
53 -103z m94 25 c15 -44 28 -80 30 -80 2 0 15 36 30 80 17 52 32 80 41 80 17
0 17 -2 -28 -128 -22 -59 -35 -82 -45 -80 -10 2 -29 41 -49 98 -39 110 -39
110 -20 110 9 0 24 -30 41 -80z m283 61 c4 -11 -2 -13 -27 -8 -46 9 -77 -7
-90 -45 -23 -71 23 -127 92 -112 22 5 28 3 25 -7 -7 -21 -85 -23 -113 -5 -56
37 -54 150 3 181 33 18 104 15 110 -4z m154 2 c24 -22 23 -69 -2 -85 -19 -12
-19 -13 5 -54 29 -50 30 -54 10 -54 -8 0 -25 20 -37 45 -14 29 -29 45 -40 45
-15 0 -18 -8 -18 -45 0 -33 -4 -45 -15 -45 -12 0 -15 18 -15 105 l0 105 47 0
c29 0 53 -6 65 -17z m215 -7 c25 -21 28 -31 28 -81 0 -50 -3 -60 -28 -81 -33
-28 -91 -32 -124 -9 -33 23 -48 83 -33 129 6 20 21 43 33 51 33 23 91 19 124
-9z m98 -53 l19 -78 24 78 c31 99 48 100 76 4 10 -37 22 -67 26 -67 4 0 10 14
14 32 15 78 27 108 42 108 9 0 14 -6 12 -12 -3 -7 -15 -55 -28 -105 -19 -74
-27 -93 -42 -93 -10 0 -18 5 -18 11 0 7 -10 44 -21 83 -24 79 -21 80 -54 -36
-16 -58 -38 -76 -49 -40 -19 62 -46 169 -46 179 0 7 6 13 13 13 8 0 20 -29 32
-77z m365 62 c38 -20 55 -70 40 -124 -13 -49 -48 -71 -115 -71 l-45 0 0 105 0
105 45 0 c26 0 59 -7 75 -15z m-1072 -689 c15 -8 40 -28 57 -45 24 -26 30 -41
33 -94 3 -52 0 -67 -20 -96 -34 -50 -71 -73 -125 -78 -127 -12 -221 123 -164
235 33 65 74 90 149 91 24 1 55 -5 70 -13z m309 -843 c-1 -159 -2 -29 -2 287
0 316 1 446 2 288 2 -159 2 -417 0 -575z m452 836 c44 -24 76 -71 86 -123 10
-60 -32 -138 -91 -167 -104 -50 -219 11 -231 124 -7 59 1 88 34 128 51 60 135
76 202 38z m-781 -406 c15 -24 17 -63 20 -371 2 -279 1 -343 -10 -340 -10 4
-14 47 -18 174 l-5 169 -34 3 c-20 2 -37 -2 -42 -10 -5 -7 -9 -86 -9 -176 0
-127 -3 -163 -12 -160 -18 6 -23 579 -7 657 14 67 49 107 79 91 11 -6 28 -23
38 -37z m737 35 c3 -7 -1 -47 -9 -88 -14 -70 -13 -82 9 -200 26 -137 43 -277
47 -385 l3 -70 -82 -3 -83 -3 0 63 c0 80 23 269 51 415 20 106 20 118 6 193
-8 44 -12 82 -9 85 11 10 63 5 67 -7z"/>
<path d="M982 2684 c-13 -44 -12 -47 21 -42 24 3 24 3 8 42 l-17 39 -12 -39z"/>
<path d="M1500 2700 c0 -33 3 -40 19 -40 36 0 51 12 51 40 0 28 -15 40 -51 40
-16 0 -19 -7 -19 -40z"/>
<path d="M1689 2722 c-32 -27 -32 -107 0 -134 31 -25 57 -23 86 7 17 16 25 35
25 60 0 25 -8 44 -25 60 -29 30 -55 32 -86 7z"/>
<path d="M2170 2655 c0 -78 2 -85 20 -85 36 0 69 23 80 54 20 62 -16 115 -77
116 -22 0 -23 -3 -23 -85z"/>
</g>
</svg>
